<svg xmlns="http://www.w3.org/2000/svg" width="64" height="64" fill="none"><path fill="#2E2F42" d="m61.5 44.2-16.8-17 1.8-9.2 1.6.2a4.3 4.3 0 1 0-4-2.8l-10 1.2L18 .3a1 1 0 0 0-.7-.3 1 1 0 0 0-.8.3l-3 3a1 1 0 0 0 0 1.5L15 6.5A29.9 29.9 0 0 0 20.4 42l-.1 1v12.5H7.5c-3 0-5.4 2.4-5.4 5.3v2.1c0 .6.5 1.1 1.1 1.1h49c.7 0 1.1-.5 1.1-1v-2.2c0-3-2.3-5.3-5.3-5.3H35.2V50a30 30 0 0 0 20.2-3l1.6 1.7c.2.2.5.3.8.3.3 0 .5 0 .7-.3l3-3c.5-.4.5-1 0-1.5Zm-15-31.7a2.1 2.1 0 1 1 1.6 3.6 2.1 2.1 0 0 1-1.5-3.6Zm-2.5 7L43 25.4 40.5 23l3.5-3.5Zm-1.2-1.8L39 21.5l-3-3 6.8-.8ZM48 57.6c1.8 0 3.2 1.4 3.2 3.2v1h-47v-1c0-1.8 1.5-3.2 3.3-3.2H48Zm-15-4.3v2.2H22.5v-2.2h10.7Zm-10.6-2.1v-8.1c0-2.6 2.4-4.7 5.3-4.7 3 0 5.4 2.1 5.4 4.7v8.1H22.4Zm12.8-3.4v-4.7c0-3.8-3.3-6.8-7.5-6.8a7.6 7.6 0 0 0-6.5 3.5 27.7 27.7 0 0 1-4.6-31.7l37.2 37.4c-5.7 2.9-12.3 3.7-18.6 2.3Zm22.6-1.4L56.3 45 17.2 5.6 15.7 4l1.5-1.5 15.9 16 26.2 26.3-1.5 1.5Z"/><path fill="#4D5AE5" d="M27.8 40.5a3.2 3.2 0 0 0 0 6.4 3.2 3.2 0 0 0 0-6.4Zm.7 4a1 1 0 1 1-.8-1.8 1 1 0 0 1 .8 1.8Z"/></svg>