<svg xmlns="http://www.w3.org/2000/svg" width="64" height="64" fill="none"><path fill="#4D5AE5" d="M64 9a1 1 0 0 0-1-.7l-3.7-.5-1.7-3.5c-.4-.7-1.6-.7-2 0L54 7.8l-3.8.5a1 1 0 0 0-.6 1.8l2.8 2.7-.7 3.8a1 1 0 0 0 1.6 1.2l3.4-1.8 3.4 1.8a1 1 0 0 0 1.6-1.2l-.7-3.8 2.8-2.7c.3-.2.4-.7.2-1Zm-5 2.7a1 1 0 0 0-.3 1l.4 2.2-2-1a1 1 0 0 0-1 0l-2 1 .4-2.3c0-.3 0-.7-.3-.9l-1.6-1.6 2.2-.3c.3 0 .6-.3.8-.6l1-2 1 2c.2.3.5.5.8.6l2.2.3-1.6 1.6ZM52.3 41H50v2.2h2.2V41ZM52.3 45.3H50v2.1h2.2v-2ZM54.4 43.2h-2.1v2.1h2.1v-2.1Z"/><path fill="#4D5AE5" d="M50.1 43.2H48v2.1h2.1v-2.1ZM44.8 52.8h-2.1v2.1h2.1v-2.1ZM44.8 57h-2.1v2.2h2.1V57ZM47 55h-2.2v2h2.1v-2ZM42.7 55h-2.2v2h2.2v-2ZM32 48.5h-2.1v2.1H32v-2ZM32 52.8h-2.1v2.1H32v-2.1ZM34.1 50.6H32v2.2h2.1v-2.2Z"/><path fill="#4D5AE5" d="M29.9 50.6h-2.2v2.2H30v-2.2ZM11.7 12.2H9.6v2.2h2.1v-2.2ZM11.7 16.5H9.6v2.1h2.1v-2ZM13.9 14.4h-2.2v2.1H14v-2.1ZM9.6 14.4H7.5v2.1h2.1v-2.1Z"/><path fill="#2E2F42" d="M49.4 28.3a3.5 3.5 0 0 0-2.3-1.4c-1-.1-2 .1-2.7.7l-2.5 2-3.8 2.8-2.7-1.1a13.9 13.9 0 0 0-5.7-26.5A14 14 0 0 0 18 26.2h-5.6a1 1 0 0 0-.3 0H12l-6.5 3.2-3.8 1.8-.1.1a3.6 3.6 0 0 0 3.7 6.1L8 36l4.6-2.3h2.7L4.4 44.4l-2.7 2.7a3.3 3.3 0 0 0 0 4.7 3.3 3.3 0 0 0 4.7 0l2.7-2.6 3.4-2.6 1.8 1.8-3.5 3.5-2.7 2.7a3.3 3.3 0 0 0 0 4.7 3.3 3.3 0 0 0 4.8 0l2.6-2.7 4.3-4.3 2-2L32.3 39l7 1a1 1 0 0 0 .5-.1l.2-.1 6.4-4.3h.2L49 33a3.6 3.6 0 0 0 .4-4.7ZM4.3 35.5c-.4.2-.8.3-1.2.1a1.4 1.4 0 0 1-.4-2.5L5.3 32l.7 1.8.2.8-2 1Zm7-3.6-3.1 1.6-.6-1.5-.3-1 4-2v2.9Zm30.2-13.3c0 1.9-.5 3.6-1.2 5.2L31.9 20c0-1.2-.7-2.2-1.6-2.8l3-9.7c4.7 1.5 8.2 6 8.2 11.1Zm-23.6 0A11.8 11.8 0 0 1 31.2 7l-3 9.5c-2 0-3.8 1.7-3.8 3.7a3.7 3.7 0 0 0 7 1.9l7.7 3.5a11.8 11.8 0 0 1-21.2-7Zm11.9 1.6c0 1-.7 1.6-1.6 1.6-1 0-1.6-.7-1.6-1.6 0-.8.7-1.6 1.6-1.6.9 0 1.6.8 1.6 1.6Zm-24.9 30c-.4.6-1.2.6-1.7 0a1.2 1.2 0 0 1 0-1.6l2-2 1.6 1.8L5 50.3Zm6.5 7.6c-.5.4-1.3.4-1.8 0a1.2 1.2 0 0 1 0-1.7l2-2 .8.9.9.8-2 2Zm7-7-3.6 3.5-.8-.8-1-.9 3.6-3.5.2-.2v-.1l.1-.3V48a1 1 0 0 0-.2-.3l-3.3-3.3h-.1l-.2-.2h-1v.1L8.4 47l-1.8-1.8 4.8-4.8 8.7 8.6-1.9 1.8Zm13.6-14h-.1a1 1 0 0 0-.6.1l-.2.2-9.5 10.3L13 39l5.6-5.6a1 1 0 0 0-.7-1.9h-4.5v-3.1h6.3a13.9 13.9 0 0 0 12.5 4l.3.1 4.8 2 .3 1.5.4 1.7-6-.8Zm8 .3-.6-3 3-2.2.7 1 1.1 1.5L40 37Zm7.5-5.6L46 33 44 30.6l1.7-1.3c.3-.2.7-.3 1-.3a1.4 1.4 0 0 1 .8 2.5Z"/><path fill="#2E2F42" d="m27.2 37-4.3-4.2a1 1 0 0 0-1.5 0l-4.3 4.3a1 1 0 0 0 0 1.5l4.3 4.3a1 1 0 0 0 1.5 0l4.3-4.3a1 1 0 0 0 0-1.5Zm-5 3.6-2.8-2.8 2.8-2.7 2.7 2.7-2.7 2.8ZM34.3 10.1l-.5 2.1c.2 0 3.5 1 3.5 4.3h2.1c0-4-3.3-6-5-6.4ZM39.4 18.6h-2.1v2.2h2.1v-2.2Z"/></svg>