<svg xmlns="http://www.w3.org/2000/svg" width="104" height="56" fill="none"><path fill="#8E8F99" d="M26.8 44.4c.2.2.4.6.4 1 0 .2 0 .4-.2.6 0 .2-.2.4-.4.6-.5.3-1 .4-1.7.4H22V41h2.9c.5 0 1 0 1.6.4l.4.5.1.6c0 .4 0 .7-.3 1-.2.2-.6.4-.9.4.4.1.7.3 1 .6Zm-3.4-1h1.2c.3 0 .5 0 .8-.2l.2-.2v-.7l-.2-.3-.8-.2h-1.2v1.6Zm2 2.4c.2 0 .3-.2.3-.3v-.7l-.2-.3-.9-.2h-1.2V46h1.3c.3 0 .5 0 .8-.2ZM32.6 47l-1.5-2.4h-.6V47H29V41h2.6c.6 0 1.3.1 1.8.5.4.3.6.8.6 1.2 0 .5-.1 1-.4 1.3-.3.4-.8.6-1.3.7l1.7 2.4h-1.5Zm-2.1-3.2h1c.9 0 1.2-.3 1.2-1v-.3a1 1 0 0 0-.2-.3c-.3-.2-.6-.3-1-.3h-1v1.9ZM40.1 45.8h-2.7L37 47h-1.4l2.5-6h1.6l2.5 6h-1.5l-.5-1.2Zm-.3-1-1-2.5-1 2.5h2ZM49.5 47h-1.3l-3-4.2V47h-1.4V41H45l3 4.2v-4.2h1.4V47ZM57.3 45.5c-.3.5-.7.9-1.2 1.1-.6.3-1.3.4-2 .4h-2.4V41h2.4c.7 0 1.4 0 2 .4.5.2 1 .6 1.2 1a3.3 3.3 0 0 1 0 3.2Zm-1.6-.1a2.1 2.1 0 0 0 0-3c-.4-.3-1-.5-1.7-.5h-1v4h1c.7 0 1.3-.1 1.7-.5ZM41 6.8s17.6 6 17.2 14.6V36S40.6 30 41 21.4V6.8ZM73.8 32.6c3.4-2 7.2-3.4 11.2-3.7v-4.6a22.5 22.5 0 0 0-11.2 8.3Z"/><path fill="#8E8F99" d="M71.8 34c2.8-5 7.5-8.8 13.2-10.7V10.2S60 18.7 60.5 31v20.8l2.9-1.1v-2a21 21 0 0 1 8.4-14.8Z"/><path fill="#8E8F99" d="M69.5 41.7c.1-1.5.4-2.9.8-4.3A19.1 19.1 0 0 0 65 50l4.9-2.3c-.5-2-.6-4-.4-6ZM70.5 41.8c-.2 1.8-.1 3.6.3 5.4C77.6 43.5 85.3 37.8 85 31v-.6c-4.9.5-9.5 2.4-13 5.4-.8 2-1.4 4-1.5 6Z"/></svg>