<svg xmlns="http://www.w3.org/2000/svg" width="64" height="64" fill="none"><g clip-path="url(#a)"><path fill="#2E2F42" d="M62.6 30.6A30.6 30.6 0 1 0 23 59.8c.3 0 .5 0 .7-.2.3-.1.5-.4.6-.7L32 34.4a3.8 3.8 0 1 0-1.7-7.2L20.1 16.9a1.3 1.3 0 0 0-1.8 1.8L28.5 29a3.8 3.8 0 0 0 1.1 4.6l-7.4 23.3a28 28 0 1 1 21.2-.7l-.8-3.7a1.3 1.3 0 0 0-2.1-.7l-7.7 6.8a1.3 1.3 0 0 0 .5 2.2L43 64a1.3 1.3 0 0 0 1.6-1.4l-.8-3.7a30.5 30.5 0 0 0 18.7-28.2ZM32 29.3a1.3 1.3 0 1 1 0 2.6 1.3 1.3 0 0 1 0-2.6Zm4.2 29.8 4.4-4 1.2 5.7-5.6-1.7Z"/><path fill="#4D5AE5" d="M30.7 6.4v2.5a1.3 1.3 0 1 0 2.6 0V6.4a1.3 1.3 0 0 0-2.6 0ZM7.8 29.3a1.3 1.3 0 0 0 0 2.6h2.5a1.3 1.3 0 1 0 0-2.6H7.8ZM56.2 31.9a1.3 1.3 0 1 0 0-2.6h-2.5a1.3 1.3 0 0 0 0 2.6h2.5Z"/></g><defs><clipPath id="a"><path fill="#fff" d="M0 0h64v64H0z"/></clipPath></defs></svg>