<svg xmlns="http://www.w3.org/2000/svg" width="104" height="56" fill="none"><path fill="#8E8F99" d="M53.5 27.4a3 3 0 0 1-.6-2v-2.8c0-1 .2-1.6.6-2 .4-.5 1.1-.7 2.1-.7s1.6.2 2 .5c.4.5.6 1.2.5 1.8v.7h-1.6v-1.4c0-.2-.2-.3-.3-.4a1 1 0 0 0-.6-.2 1 1 0 0 0-.6.2c-.2.1-.3.3-.3.4v4.3c0 .3 0 .6.2 1l.3.2h.4l.6-.1.2-.4V25h1.7v.7c0 .6-.1 1.3-.5 1.8-.4.4-1 .6-2 .6s-1.7-.2-2-.7ZM60.4 27.5c-.4-.5-.6-1.1-.6-2v-3c0-.9.2-1.5.6-2 .4-.4 1-.6 2-.6s1.7.2 2.1.6c.4.5.7 1.1.7 2v3c0 .9-.3 1.5-.7 2-.4.4-1 .6-2 .6s-1.7-.2-2.1-.6Zm2.8-.8c.2-.2.2-.5.2-.9v-3.7c0-.3 0-.6-.2-.9L63 21a1 1 0 0 0-.4 0 1 1 0 0 0-.5 0l-.3.2c-.2.3-.2.6-.2 1v3.7c0 .3 0 .6.2.9l.3.2a1.2 1.2 0 0 0 .9 0l.3-.2ZM67.1 20H69l1.3 5.6 1.4-5.7h1.7l.2 8.1h-1.3l-.1-5.6-1.3 5.6h-1l-1.4-5.6-.1 5.6H67l.1-8ZM75.5 20h2.7c1.6 0 2.4.7 2.4 2.2 0 1.5-.8 2.2-2.5 2.2h-1V28h-1.6v-8Zm2.3 3.4h.5c.2 0 .3-.2.5-.3.2-.2.3-.5.2-.9v-.7l-.2-.2-.2-.2-.8-.1h-.6v2.4h.6ZM83 20h2l1.8 8h-1.6l-.4-1.8h-1.6l-.4 1.8h-1.6l1.9-8Zm1.6 5.2-.6-3.4-.6 3.4h1.2ZM88.3 20h1.2l2.3 4.6v-4.7h1.4V28H92l-2.3-4.8V28h-1.5v-8ZM96.5 25l-1.9-5h1.6l1.2 3.2 1-3.2h1.6l-1.9 5v3h-1.6v-3ZM56.2 31.6v.4h-1.4v3.3h-.6V32h-1.4v-.4h3.4ZM60.5 35.3H60v-.1l-.4-1h-2l-.4 1-.2.1h-.4l1.7-3.7h.6l1.7 3.7Zm-2.8-1.4h1.6l-.7-1.5-.1-.4v.2l-.1.2-.7 1.5ZM63.4 35h.4a2 2 0 0 0 .5-.2h.2v-1h-.7v-.3H65v1.4a2.6 2.6 0 0 1-1.1.4h-.5l-.9-.1a2 2 0 0 1-.7-.4l-.4-.6c-.1-.2-.2-.5-.1-.8l.1-.7.4-.6.7-.4a2.9 2.9 0 0 1 1.4-.1 2.3 2.3 0 0 1 .8.2l.3.2-.2.3h-.4l-.2-.2a2.1 2.1 0 0 0-.8-.1 2 2 0 0 0-.6 0l-.5.4-.4.4v1.3l.4.5a1.5 1.5 0 0 0 1.1.3ZM68.9 34.9h1.8v.4h-2.4v-3.7h.6v3.3ZM72.7 35.3H72v-3.7h.6v3.7ZM74.8 31.6h.1l2.5 2.9V31.6h.5v3.7h-.4v-.1l-2.6-2.8V35.3h-.5v-3.7h.4ZM82.2 31.6v.4h-2v1.2h1.6v.4h-1.7v1.3h2.1v.4h-2.7v-3.7h2.7ZM21.2 8.7 47 15v22.2l-25.8-6.3V8.7Zm-1.7-2V32l29.2 7.2V13.9L19.5 6.8Z"/><path fill="#8E8F99" d="M35.2 50.8 6 43.6V18.4l29.2 7.2v25.2Z"/><path fill="#8E8F99" d="m20 8.4 25.5 6.2L34.7 24 9.2 17.7 20 8.4Zm-.5-1.6L6 18.4l29.2 7.2 13.5-11.7-29.2-7.1ZM36.8 49.4 48.7 39l-11.9-3v13.3Z"/></svg>