<svg xmlns="http://www.w3.org/2000/svg" width="104" height="56" fill="none"><path fill="#8E8F99" d="M36.8 49.2h.1l.2.3-.6.4-.9.1-.8-.1c-.3-.1-.5-.2-.6-.4-.2-.2-.4-.4-.4-.6a1.9 1.9 0 0 1 0-1.5c0-.2.2-.4.4-.5l.7-.4a2.6 2.6 0 0 1 1.6 0l.6.3-.2.2h-.4a1.6 1.6 0 0 0-.8-.2h-.6l-.5.4-.3.4-.1.6.1.6a1.3 1.3 0 0 0 .8.7h.9a1.3 1.3 0 0 0 .7-.2h.1ZM43.2 48.2c0 .2 0 .5-.2.7 0 .2-.2.4-.4.6a2 2 0 0 1-.6.4h-1.7a2 2 0 0 1-.7-.4l-.4-.6c-.2-.5-.2-1 0-1.5l.4-.5.7-.4c.5-.2 1.1-.2 1.7 0 .2 0 .4.2.6.4a1.7 1.7 0 0 1 .6 1.3Zm-.6 0-.1-.6a1.2 1.2 0 0 0-.8-.7 2 2 0 0 0-1.2 0l-.4.2c-.2.2-.3.3-.3.5-.2.4-.2.8 0 1.2a1.2 1.2 0 0 0 .7.7h1.2c.2 0 .4-.2.5-.3l.3-.4.1-.6ZM47.5 48.8v.1l.2-.1v-.1l1.4-2.2h.1l.1-.1h.5V50h-.5V47l-1.5 2.2v.1h-.4L45.9 47V50h-.5v-3.6h.6l1.5 2.3v.1ZM52.8 48.6V50h-.5v-3.6h1.9l.5.3.3.3v.5a1 1 0 0 1-.3.8l-.5.2-.7.1h-.7Zm0-.4H54c.2 0 .3-.1.3-.2l.2-.2.1-.3v-.3l-.2-.2c-.3-.2-.5-.2-.8-.2h-.7v1.4ZM60.3 50h-.5l-.2-.2-.3-.8h-2l-.3.8v.1H56.3l1.6-3.5h.6l1.7 3.6Zm-2.8-1.4h1.6l-.7-1.4v-.3l-.2.1v.2l-.7 1.4ZM62.6 46.4h.1l2.4 2.8V46.4h.5V50H65.3l-.1-.1-2.4-2.7V50h-.5v-3.6h.3ZM69.7 48.5V50h-.5v-1.5l-1.6-2.1h.6l.1.1 1 1.4a2.1 2.1 0 0 1 .1.3l.1-.1.1-.2 1-1.4.1-.1h.5l-1.5 2.1ZM47.3 40.4h.7c3.7-1.3 6.9-3.7 9-6.6 2.2-3 3.4-6.4 3.3-9.9l-4.1-3.5c.8 3.7.4 7.6-1.2 11.1a21 21 0 0 1-7.7 9Z"/><path fill="#8E8F99" d="M45.8 40.3h.1c3.8-2.3 6.6-5.5 8.2-9.2a17 17 0 0 0 .8-11.6l-5.9-5a21.1 21.1 0 0 1-3.2 25.8ZM65.6 28a18 18 0 0 1-6.9 9.9 22 22 0 0 1-3.2 2c2.8-.7 5.4-2 7.6-3.7 2.1-1.7 3.8-3.8 4.9-6.1l-2.4-2Z"/><path fill="#8E8F99" d="m64.7 27.5-3.4-3c0 3.4-1.1 6.6-3.1 9.4-2 2.8-5 5.1-8.3 6.6h2.3a21 21 0 0 0 8.1-5.2c2.2-2.3 3.7-5 4.4-7.8ZM46.3 12.4l-4-3.4a19 19 0 0 0-9 6c-2.1 2.7-3.3 6-3.3 9.2a15 15 0 0 0 4 10c2.7 3 6.4 5 10.5 5.9 3.7-3.9 5.9-8.6 6.2-13.6.3-5-1.2-9.9-4.4-14ZM74 27c0-4.4-2-8.5-5.6-11.6A21.8 21.8 0 0 0 48 11.7l24.6 21A14 14 0 0 0 74 27Z"/></svg>