<svg xmlns="http://www.w3.org/2000/svg" width="64" height="64" fill="none"><g clip-path="url(#a)"><path fill="#4D5AE5" d="M29.9 30h2v9.5h-2V30ZM38.4 34.2h2.1v5.3h-2.1v-5.3ZM21.3 37.4h2.2v2.1h-2.2v-2.1ZM15 36.3h2v3.2h-2v-3.2Z"/><path fill="#2E2F42" d="M3.2 56.6h51.2c1.7 0 3.2-1.5 3.2-3.2V49c0-1.7-1.5-3.2-3.2-3.2h-1V19.3l6-5.7a3.2 3.2 0 1 0-1.5-1.5l-4.6 4.3v-2.5c0-1.7-1.4-3.2-3.2-3.2H7.5A3.2 3.2 0 0 0 4.3 14v32H3.2A3.2 3.2 0 0 0 0 49.1v4.3c0 1.7 1.4 3.2 3.2 3.2Zm57.6-47a1 1 0 1 1 0 2.2 1 1 0 0 1 0-2.1ZM6.4 14c0-.6.5-1 1-1h42.7c.6 0 1 .4 1 1v4.5l-2 2v-4.3c0-.6-.5-1.1-1.1-1.1H9.6a1 1 0 0 0-1 1v26.7c0 .6.4 1 1 1H48c.6 0 1-.4 1-1V23.4l2.2-2v24.5H6.4V14ZM16 27.8a3.2 3.2 0 1 0 2.2 5.5l3.7 1.9c.4.2 1 0 1.3-.3L31 26l7.7 5.8c.4.4 1 .3 1.4 0l6.7-6.4v16.3H10.7V17h36.2v5.4l-7.5 7.1-7.8-5.9a1 1 0 0 0-1.5.2l-8 9-3-1.5V31c0-1.8-1.3-3.2-3.1-3.2Zm1 3.2a1 1 0 1 1-2 0 1 1 0 0 1 2 0Zm6.5 17H34v1.1c0 .6-.5 1-1 1h-8.6a1 1 0 0 1-1-1v-1ZM2 49.2c0-.6.5-1 1.1-1h18.1v1c0 1.8 1.5 3.2 3.2 3.2H33c1.8 0 3.2-1.4 3.2-3.2v-1h18.2c.6 0 1 .4 1 1v4.3c0 .6-.4 1-1 1H3.2a1 1 0 0 1-1-1V49Z"/></g><defs><clipPath id="a"><path fill="#fff" d="M0 0h64v64H0z"/></clipPath></defs></svg>