<svg xmlns="http://www.w3.org/2000/svg" width="104" height="56" fill="none"><path fill="#8E8F99" d="M24 21.5c-2.3 0-4.2 1.8-4.2 4 0 2 1.9 3.8 4.3 3.8s4.3-1.7 4.3-3.9c0-2.1-2-3.9-4.3-3.9ZM56 20.3c0-3-1.4-5.9-3.7-8A13.3 13.3 0 0 0 43.5 9c-3.4 0-6.5 1.2-8.9 3.3-2.3 2.1-3.6 5-3.6 8v16.4s25-2.5 25-16.4ZM11 42.2c0 2 1 4 2.6 5.5a9.2 9.2 0 0 0 6.1 2.3c2.3 0 4.5-.8 6.1-2.3a7.5 7.5 0 0 0 2.6-5.5V30.7S11 32.4 11 42.2Zm8.7 2c-.5 0-.9-.1-1.3-.3l-.8-1c-.2-.3-.2-.7-.1-1.1 0-.4.3-.8.6-1.1.3-.3.7-.5 1.2-.6.4 0 .9 0 1.3.2.4.1.7.4 1 .7a2 2 0 0 1-.3 2.6l-.7.5-.9.1ZM35.6 40.5v4.3h-.9v-4.3h1Zm1.7 1.8v.7h-2v-.7h2Zm.2-1.8v.7h-2.1v-.7h2.1Zm4 2v.3l-.1.8c0 .3-.2.5-.4.7-.1.2-.3.3-.6.4l-.7.1-.7-.1-.6-.4a2 2 0 0 1-.4-.7l-.1-.8v-.3l.1-.8.4-.7.6-.4.7-.1.7.1c.3.1.5.2.6.4l.4.7.1.8Zm-.9.3V41.9l-.2-.4a.8.8 0 0 0-.7-.3h-.4l-.3.3-.2.4v1.4l.2.5.3.3h.8l.3-.3.2-.5v-.5Zm3.8.9v-.2l-.2-.2-.2-.2-.5-.1-.5-.2-.5-.3-.3-.4a1 1 0 0 1 0-.5v-.4l.4-.4.5-.3a2.3 2.3 0 0 1 1.4.1l.6.5.2.7h-1v-.4l-.2-.2h-.4a1 1 0 0 0-.4 0l-.2.2-.1.2v.2l.2.2.3.1.3.2.7.2.4.3a1.1 1.1 0 0 1 .4.9l-.1.5-.4.3-.5.3a2.4 2.4 0 0 1-1.8-.3l-.4-.4-.1-.7h.9v.4l.2.2.3.1h.7a.5.5 0 0 0 .3-.4Zm3.4-3.2v4.3h-1v-4.3h1Zm1.3 0v.7h-3.5v-.7h3.5Zm3.3 3.6v.7h-2.2V44h2.2Zm-2-3.6v4.3h-.8v-4.3h.9Zm1.7 1.8v.6h-2v-.6h2Zm.3-1.8v.7h-2.2v-.7h2.2Zm.6 0h1.5c.4 0 .6 0 .9.2.2 0 .4.2.5.4.2.2.2.4.2.7l-.1.6c0 .2-.2.3-.3.4l-.5.3-.3.1h-1.4v-.7H55l.3-.3v-.7l-.3-.2-.4-.1h-.7v3.6H53v-4.3Zm2.3 4.3-1-2h1l1 2h-1Zm4.7-1.5h-1.1v-.7h1l.5-.1.2-.2v-.7l-.2-.3a.8.8 0 0 0-.4-.1h-.8v3.6h-1v-4.3H60c.3 0 .6 0 .8.2a1.3 1.3 0 0 1 .8 1.2l-.2.7c-.2.2-.3.4-.6.5a2 2 0 0 1-.8.2Zm5 .8v.7h-2.3V44H65Zm-2-3.6v4.3h-.8v-4.3h.8Zm1.7 1.8v.6h-2v-.6h2Zm.3-1.8v.7h-2.3v-.7H65Zm2.5 0v4.3h-.9v-4.3h.9Zm1.3 0v.7h-3.5v-.7h3.5Zm3.4 3.6v.7h-2.3V44h2.3Zm-2-3.6v4.3h-.9v-4.3h.9Zm1.7 1.8v.6h-2v-.6h2Zm.3-1.8v.7h-2.3v-.7h2.3Zm.5 0h1.6c.3 0 .6 0 .8.2.3 0 .4.2.6.4l.2.7c0 .2 0 .4-.2.6 0 .2-.1.3-.3.4l-.5.3-.3.1h-1.3v-.7h1.4l.2-.3v-.7l-.2-.2-.4-.1h-.7v3.6h-1v-4.3Zm2.4 4.3-1-2h1l1 2h-1Zm3.7-1.1v-.2l-.2-.2-.3-.2-.4-.1-.5-.2-.5-.3-.3-.4a1 1 0 0 1-.1-.5l.1-.4c0-.2.2-.3.3-.4l.5-.3a2.3 2.3 0 0 1 1.5.1l.5.5c.2.2.2.4.2.7h-.8l-.1-.4-.3-.2H78a1 1 0 0 0-.3 0l-.3.2v.4l.2.2.2.1.4.2.6.2.5.3a1.1 1.1 0 0 1 .3.9v.5l-.4.3-.5.3a2.4 2.4 0 0 1-1.8-.3l-.4-.4-.1-.7h.8l.1.4.2.2.2.1h.8a.5.5 0 0 0 .3-.4Z"/></svg>