<svg xmlns="http://www.w3.org/2000/svg" width="16" height="16" fill="none"><g fill="#F4F4FD" clip-path="url(#a)"><path d="M15.98 4.7a5.85 5.85 0 0 0-.37-1.94 3.9 3.9 0 0 0-.92-1.42c-.4-.4-.89-.72-1.42-.92-.5-.2-1.09-.33-1.94-.37A54.6 54.6 0 0 0 8.03 0c-2.17 0-2.44 0-3.3.05C3.88.08 3.3.22 2.8.42a3.9 3.9 0 0 0-1.42.92c-.4.4-.72.89-.92 1.42-.2.5-.33 1.1-.37 1.94A54.6 54.6 0 0 0 .03 8c0 2.17 0 2.45.04 3.3.04.85.18 1.43.38 1.94.2.54.52 1.02.92 1.42.4.4.89.72 1.42.92.5.2 1.09.34 1.94.37.85.04 1.12.05 3.3.05 2.17 0 2.44 0 3.3-.05a5.84 5.84 0 0 0 1.94-.37 4.1 4.1 0 0 0 2.34-2.34c.2-.51.33-1.1.37-1.94.04-.85.04-1.13.04-3.3s0-2.44-.04-3.3Zm-1.44 6.54c-.03.78-.16 1.2-.27 1.48-.27.7-.82 1.25-1.52 1.52-.28.11-.7.24-1.49.28-.84.03-1.1.04-3.23.04s-2.39 0-3.23-.04a4.38 4.38 0 0 1-1.48-.28 2.46 2.46 0 0 1-.92-.6 2.49 2.49 0 0 1-.6-.92 4.4 4.4 0 0 1-.27-1.48 56.3 56.3 0 0 1-.05-3.23c0-2.14 0-2.4.05-3.23.03-.79.16-1.2.27-1.49.13-.35.33-.66.6-.92.26-.26.57-.47.92-.6.28-.1.7-.24 1.48-.27.85-.04 1.1-.05 3.24-.05 2.13 0 2.39.01 3.23.05.78.03 1.2.17 1.48.28.35.12.67.33.92.6.27.25.47.56.6.91.1.28.24.7.27 1.49.04.84.05 1.1.05 3.23s0 2.38-.05 3.23Z"/><path d="M8.03 3.9a4.11 4.11 0 1 0 0 8.21 4.11 4.11 0 0 0 0-8.22Zm0 6.77a2.67 2.67 0 1 1 0-5.34 2.67 2.67 0 0 1 0 5.34ZM13.26 3.73a.96.96 0 1 1-1.92 0 .96.96 0 0 1 1.92 0Z"/></g><defs><clipPath id="a"><path fill="#fff" d="M0 0h16v16H0z"/></clipPath></defs></svg>