<svg xmlns="http://www.w3.org/2000/svg" aria-hidden="true" style="position:absolute;width:0;height:0;overflow:hidden"><defs><symbol id="icon-instagram" viewBox="0 0 32 32"><path d="M31.96 9.4c-.03-1.4-.3-2.73-.77-3.96l.03.08A8.09 8.09 0 0 0 26.54.84c-1-.4-2.18-.66-3.88-.74a104.85 104.85 0 0 0-6.69-.1h.09c-4.34 0-4.88 0-6.6.1C7.76.16 6.6.44 5.6.84A8.09 8.09 0 0 0 .92 5.52c-.4 1-.66 2.2-.74 3.88a104.77 104.77 0 0 0-.12 6.67V16c0 4.34 0 4.9.08 6.6s.36 2.86.76 3.88a8.09 8.09 0 0 0 4.68 4.68c1 .4 2.18.68 3.88.74 1.7.08 2.24.1 6.6.1 4.34 0 4.88 0 6.6-.1 1.4-.03 2.73-.3 3.96-.77l-.08.03a8.25 8.25 0 0 0 4.66-4.63l.02-.05c.4-1.02.66-2.2.74-3.88.08-1.7.08-2.26.08-6.6s0-4.88-.08-6.6zm-2.88 13.08a8.52 8.52 0 0 1-.54 2.96 5.3 5.3 0 0 1-3.04 3.04c-.56.22-1.4.48-2.98.56-1.68.06-2.2.08-6.46.08s-4.78 0-6.46-.08a8.77 8.77 0 0 1-3.02-.58l.06.02a4.94 4.94 0 0 1-1.84-1.2 4.99 4.99 0 0 1-1.19-1.8l-.01-.04a8.65 8.65 0 0 1-.54-2.96 108.54 108.54 0 0 1-.1-6.54v.08c0-4.28 0-4.8.1-6.46.06-1.58.32-2.4.54-2.98a4.9 4.9 0 0 1 1.2-1.84 5.15 5.15 0 0 1 1.84-1.2c.56-.2 1.4-.48 2.96-.54 1.7-.08 2.2-.1 6.48-.1 4.26 0 4.78.02 6.46.1a8.4 8.4 0 0 1 2.96.56c.7.24 1.34.66 1.84 1.2.54.5.94 1.12 1.2 1.82.2.56.48 1.4.54 2.98.08 1.68.1 2.2.1 6.46s0 4.76-.1 6.46z"/><path d="m16.06 7.8-.4-.01a8.22 8.22 0 1 0 .42 16.43h-.02a8.22 8.22 0 1 0 0-16.44zm0 13.54a5.34 5.34 0 0 1 0-10.68 5.34 5.34 0 0 1 0 10.68zM26.52 7.46a1.92 1.92 0 0 1-3.84 0 1.92 1.92 0 0 1 3.84 0z"/></symbol><symbol id="icon-linkedin" viewBox="0 0 32 32"><path d="M32 32V20.2c0-5.6-1.2-10-8-10-3.2 0-5.4 1.6-6.2 3.4v-3h-6.6V32H18V21.4c0-2.8.4-5.4 4-5.4 3.4 0 3.4 3.2 3.4 5.6V32H32zM.6 10.6h6.6V32H.6V10.6zM4 0C1.6 0 0 1.8 0 4c0 2 1.8 3.8 4 3.8 2 0 3.6-2 3.6-4S6 0 4 0z"/></symbol><symbol id="icon-facebook" viewBox="0 0 32 32"><path d="M21.4 5.4H24V0h-4c-4.2 0-7.2 2.6-7.2 7.6V12H8.2v5.6h4.6V32h5.8V17.6H23l1-5.6h-5.4V8c0-1.6.4-2.6 2.8-2.6z"/></symbol><symbol id="icon-twitter" viewBox="0 0 32 32"><path d="M32 6c-1.2.6-2.4 1-3.8 1.2 1.4-.8 2.4-2 3-3.8-1.4.8-2.8 1.4-4.2 1.6a6.6 6.6 0 0 0-11.2 6.04V11A18.58 18.58 0 0 1 2.03 4.23L2 4.2a6.6 6.6 0 0 0 1.98 8.79L4 13c-1 0-2-.4-3-.8 0 3.2 2.4 6 5.4 6.4a6.43 6.43 0 0 1-3.04 0h.04a6.62 6.62 0 0 0 5.98 4.8h.02A13.1 13.1 0 0 1-.06 26H0A18.6 18.6 0 0 0 28.8 9.35v.05c1.2-.8 2.4-2 3.2-3.4z"/></symbol><symbol id="icon-antenna" viewBox="0 0 32 32"><path d="m30.75 22.1-8.4-8.5.9-4.6.8.1h.01a2.15 2.15 0 1 0-2-1.38l-.01-.02-5 .6L9 .15A.5.5 0 0 0 8.65 0h-.04a.5.5 0 0 0-.36.15l-1.5 1.5a.5.5 0 0 0 0 .75l.75.85A14.9 14.9 0 0 0 10.2 21l-.05.5v6.25h-6.4c-1.5 0-2.7 1.2-2.7 2.65v1.05c0 .3.25.55.55.55h24.5c.35 0 .55-.25.55-.5v-1.1A2.6 2.6 0 0 0 24 27.75h-6.4V25a14.93 14.93 0 0 0 10.18-1.54l-.08.04.8.85c.1.1.25.15.4.15s.25 0 .35-.15l1.5-1.5c.25-.2.25-.5 0-.75zm-7.5-15.85a1.05 1.05 0 1 1 .8 1.8h-.01a1.05 1.05 0 0 1-.74-1.8zM22 9.75l-.5 2.95-1.25-1.2L22 9.75zm-.6-.9-1.9 1.9-1.5-1.5 3.4-.4zM24 28.8c.9 0 1.6.7 1.6 1.6v.5H2.1v-.5c0-.9.75-1.6 1.65-1.6H24zm-7.5-2.15v1.1h-5.25v-1.1h5.35zm-5.3-1.05v-4.05c0-1.3 1.2-2.35 2.65-2.35 1.5 0 2.7 1.05 2.7 2.35v4.05H11.2zm6.4-1.7v-2.35c0-1.9-1.65-3.4-3.75-3.4h-.05a3.8 3.8 0 0 0-3.2 1.74v.01A13.8 13.8 0 0 1 8.34 3.97l-.04.08 18.6 18.7a13.9 13.9 0 0 1-9.3 1.15zm11.3-.7-.75-.7L8.6 2.8 7.85 2l.75-.75 7.95 8 13.1 13.15-.75.75z" style="fill:var(--color2, #2e2f42)"/><path d="M13.9 20.25a1.6 1.6 0 1 0 0 3.2 1.6 1.6 0 1 0 0-3.2zm.35 2a.5.5 0 1 1-.4-.9.5.5 0 0 1 .4.9z" style="fill:var(--color3, #4d5ae5)"/></symbol><symbol id="icon-clock" viewBox="0 0 32 32"><path d="M31.3 15.3v-.02a15.3 15.3 0 1 0-19.9 14.6l.1.02c.15 0 .25 0 .35-.1.15-.05.25-.2.3-.35L16 17.2a1.9 1.9 0 1 0-.86-3.6h.01l-5.1-5.15a.65.65 0 0 0-.9.9l5.1 5.15a1.9 1.9 0 0 0 .55 2.3l-3.7 11.65a14 14 0 1 1 10.69-.39l-.09.04-.4-1.85a.65.65 0 0 0-1.05-.35l-3.85 3.4a.65.65 0 0 0 .25 1.1L21.5 32l.15.02a.65.65 0 0 0 .65-.72l-.4-1.85a15.28 15.28 0 0 0 9.35-14.06v-.04zM16 14.65a.65.65 0 1 1 0 1.3.65.65 0 1 1 0-1.3zm2.1 14.9 2.2-2 .6 2.85-2.8-.85z" style="fill:var(--color2, #2e2f42)"/><path d="M15.35 3.2v1.25a.65.65 0 1 0 1.3 0V3.2a.65.65 0 1 0-1.3 0zM3.9 14.65a.65.65 0 1 0 0 1.3h1.25a.65.65 0 1 0 0-1.3H3.9zm24.2 1.3a.65.65 0 1 0 0-1.3h-1.25a.65.65 0 1 0 0 1.3h1.25z" style="fill:var(--color3, #4d5ae5)"/></symbol><symbol id="icon-diagram" viewBox="0 0 32 32"><path d="M14.95 15h1v4.75h-1V15zm4.25 2.1h1.05v2.65H19.2V17.1zm-8.55 1.6h1.1v1.05h-1.1V18.7zm-3.15-.55h1v1.6h-1v-1.6z" style="fill:var(--color3, #4d5ae5)"/><path d="M1.6 28.3h25.6c.85 0 1.6-.75 1.6-1.6v-2.2c0-.85-.75-1.6-1.6-1.6h-.5V9.65l3-2.85a1.6 1.6 0 1 0-.75-.74l-2.3 2.14V6.95c0-.85-.7-1.6-1.6-1.6H3.75A1.6 1.6 0 0 0 2.15 7v16H1.6A1.6 1.6 0 0 0 0 24.55v2.15c0 .85.7 1.6 1.6 1.6zM30.4 4.8a.55.55 0 1 1 0 1.1.52.52 0 1 1 0-1.05zM3.2 7c0-.3.25-.5.5-.5h21.35c.3 0 .5.2.5.5v2.25l-1 1V8.1c0-.3-.25-.55-.55-.55H4.8a.5.5 0 0 0-.5.5V21.4c0 .3.2.5.5.5H24c.3 0 .5-.2.5-.5v-9.7l1.1-1v12.25H3.2V7zM8 13.9h-.01a1.6 1.6 0 1 0 1.11 2.75l1.85.95c.2.1.5 0 .65-.15L15.5 13l3.85 2.9c.2.2.5.15.7 0l3.35-3.2v8.15H5.35V8.5h18.1v2.7l-3.75 3.55-3.9-2.95a.5.5 0 0 0-.75.1l-4 4.5-1.5-.75v-.15c0-.9-.65-1.6-1.55-1.6zm.5 1.6a.5.5 0 0 1-1 0 .5.5 0 0 1 1 0zm3.25 8.5H17v.55c0 .3-.25.5-.5.5h-4.3a.5.5 0 0 1-.5-.5v-.5zM1 24.6c0-.3.25-.5.55-.5h9.05v.5c0 .9.75 1.6 1.6 1.6h4.3c.9 0 1.6-.7 1.6-1.6v-.5h9.1c.3 0 .5.2.5.5v2.15c0 .3-.2.5-.5.5H1.6a.5.5 0 0 1-.5-.5V24.5z" style="fill:var(--color2, #2e2f42)"/></symbol><symbol id="icon-astronaut" viewBox="0 0 32 32"><path d="M32 4.5a.5.5 0 0 0-.48-.35h-.02l-1.85-.25-.85-1.75c-.2-.35-.8-.35-1 0L27 3.9l-1.9.25a.5.5 0 0 0-.3.9l1.4 1.35-.35 1.9a.5.5 0 0 0 .8.6l1.7-.9 1.7.9a.5.5 0 1 0 .8-.6l-.35-1.9 1.4-1.35c.15-.1.2-.35.1-.5zm-2.5 1.35a.5.5 0 0 0-.15.5l.2 1.1-1-.5a.5.5 0 0 0-.5 0l-1 .5.2-1.15c0-.15 0-.35-.15-.45l-.8-.8 1.1-.15c.15 0 .3-.15.4-.3l.5-1 .5 1c.1.15.25.25.4.3l1.1.15-.8.8zM26.15 20.5H25v1.1h1.1v-1.1zm0 2.15H25v1.05h1.1v-1zm1.05-1.05h-1.05v1.05h1.05V21.6z" style="fill:var(--color3, #4d5ae5)"/><path d="M25.05 21.6H24v1.05h1.05V21.6zm-2.65 4.8h-1.05v1.05h1.05V26.4zm0 2.1h-1.05v1.1h1.05v-1.1zm1.1-1h-1.1v1h1.05v-1zm-2.15 0h-1.1v1h1.1v-1zM16 24.25h-1.05v1.05H16v-1zm0 2.15h-1.05v1.05H16V26.4zm1.05-1.1H16v1.1h1.05v-1.1z" style="fill:var(--color3, #4d5ae5)"/><path d="M14.95 25.3h-1.1v1.1H15v-1.1zM5.85 6.1H4.8v1.1h1.05V6.1zm0 2.15H4.8V9.3h1.05v-1zm1.1-1.05h-1.1v1.05H7V7.2zm-2.15 0H3.75v1.05H4.8V7.2z" style="fill:var(--color3, #4d5ae5)"/><path d="M24.7 14.15a1.75 1.75 0 0 0-1.14-.7h-.01c-.5-.05-1 .05-1.35.35l-1.25 1-1.9 1.4-1.35-.55A6.96 6.96 0 0 0 14.85 2.4a7 7 0 0 0-5.83 10.73L9 13.1H6.2a.45.45 0 0 0-.15 0H6l-3.25 1.6-1.9.9-.05.05a1.8 1.8 0 0 0 1.86 3.04l-.01.01L4 18l2.3-1.15h1.35L2.2 22.2.85 23.55a1.64 1.64 0 0 0 0 2.35 1.64 1.64 0 0 0 2.35 0l1.35-1.3 1.7-1.3.9.9-3.1 3.1a1.64 1.64 0 0 0 0 2.35 1.65 1.65 0 0 0 2.4 0l1.3-1.35 3.15-3.15 5.25-5.65 3.5.5h.03a.5.5 0 0 0 .22-.05l.1-.05 3.2-2.15h.1l1.2-1.25a1.8 1.8 0 0 0 .2-2.35zm-22.55 3.6c-.2.1-.4.15-.6.05a.7.7 0 0 1-.2-1.25l1.3-.55.35.9.1.4-1 .5zm3.5-1.8-1.55.8-.3-.75-.15-.5 2-1v1.45zm15.1-6.65c0 .95-.25 1.8-.6 2.6l-4.2-1.9c0-.6-.35-1.1-.8-1.4l1.5-4.85c2.35.75 4.1 3 4.1 5.55zm-11.8 0a5.9 5.9 0 0 1 6.68-5.8h-.03l-1.5 4.75a1.92 1.92 0 0 0-1.9 1.97 1.85 1.85 0 0 0 3.5.84v-.01l3.85 1.75a5.9 5.9 0 0 1-10.6-3.5zm5.95.8c0 .5-.35.8-.8.8-.5 0-.8-.35-.8-.8 0-.4.35-.8.8-.8s.8.4.8.8zm-12.45 15c-.2.3-.6.3-.85 0a.6.6 0 0 1 0-.8l1-1 .8.9-.9.95zm3.25 3.8c-.25.2-.65.2-.9 0a.6.6 0 0 1 0-.85l1-1 .4.45.45.4-1 1zm3.5-3.5-1.8 1.75-.4-.4-.5-.45 1.8-1.75.1-.1v-.05l.05-.15V24a.5.5 0 0 0-.1-.15L6.7 22.2h-.05l-.1-.1h-.5v.05L4.2 23.5l-.9-.9 2.4-2.4 4.35 4.3-.95.9zm6.8-7H15.88a.5.5 0 0 0-.23.05l-.1.1-4.75 5.15-4.3-4.2 2.8-2.8a.5.5 0 1 0-.35-.95H6.7V14.2h3.15a6.93 6.93 0 0 0 6.3 2h-.05l.15.05 2.4 1 .15.75.2.85-3-.4zm4 .15-.3-1.5 1.5-1.1.35.5.55.75-2.1 1.3zm3.75-2.8-.75.75-1-1.2.85-.65c.15-.1.35-.15.5-.15a.7.7 0 0 1 .4 1.25z" style="fill:var(--color2, #2e2f42)"/><path d="m13.6 18.5-2.15-2.1a.5.5 0 0 0-.75 0l-2.15 2.15a.5.5 0 0 0 0 .75l2.15 2.15a.5.5 0 0 0 .75 0l2.15-2.15a.5.5 0 0 0 0-.75zm-2.5 1.8-1.4-1.4 1.4-1.35 1.35 1.35-1.35 1.4zm6.05-15.25L16.9 6.1c.1 0 1.75.5 1.75 2.15h1.05c0-2-1.65-3-2.5-3.2zM19.7 9.3h-1.05v1.1h1.05V9.3z" style="fill:var(--color2, #2e2f42)"/></symbol><symbol id="icon-comani-teg" viewBox="0 0 59 32"><path d="M30.57 15.66a1.7 1.7 0 0 1-.34-1.15v-1.6c0-.57.11-.91.34-1.14.23-.28.63-.4 1.2-.4s.92.12 1.15.29c.22.28.34.68.28 1.03v.4h-.91v-.8c0-.12-.12-.17-.17-.23a.57.57 0 0 0-.69 0c-.11.05-.17.17-.17.23v2.45c0 .17 0 .35.11.57l.17.12h.23l.35-.06.11-.23v-.86h.97v.4c0 .35-.06.75-.29 1.03-.22.23-.57.35-1.14.35s-.97-.12-1.14-.4zm3.94.05a1.7 1.7 0 0 1-.34-1.14v-1.71c0-.52.11-.86.34-1.15.23-.23.58-.34 1.15-.34s.97.11 1.2.34c.23.29.4.63.4 1.15v1.71c0 .51-.17.86-.4 1.14-.23.23-.57.35-1.15.35s-.97-.12-1.2-.35zm1.6-.45c.12-.12.12-.29.12-.52v-2.11c0-.17 0-.34-.12-.51L36 12a.58.58 0 0 0-.23 0l-.14-.02a.6.6 0 0 0-.15.02l-.16.11c-.12.18-.12.35-.12.58v2.1c0 .18 0 .35.11.52l.18.12a.67.67 0 0 0 .51 0l.17-.12zm2.23-3.83h1.09l.74 3.2.8-3.26h.97l.12 4.63h-.75l-.05-3.2-.75 3.2h-.57l-.8-3.2-.05 3.2h-.8l.05-4.57zm4.8 0h1.55c.91 0 1.37.4 1.37 1.26s-.46 1.25-1.43 1.25h-.57V16h-.92v-4.57zm1.32 1.94h.28c.12 0 .17-.11.29-.17.11-.11.17-.29.11-.51v-.4l-.23-.23-.45-.06h-.35v1.37h.35zm2.97-1.94h1.14L49.6 16h-.91l-.23-1.03h-.92L47.31 16h-.9l1.08-4.57zm.91 2.97L48 12.46l-.34 1.94h.68zm2.12-2.97h.68l1.32 2.63v-2.69h.8V16h-.69l-1.31-2.74V16h-.86v-4.57zm4.68 2.86-1.08-2.86h.91l.69 1.83.57-1.83h.91l-1.08 2.86V16h-.92v-1.71zm-23.03 3.77v.23h-.8v1.88h-.34V18.3h-.8v-.23h1.94zm2.46 2.11h-.29v-.06l-.22-.57H32.9l-.23.57-.11.06h-.23l.97-2.11h.34l.98 2.11zm-1.6-.8h.91l-.4-.86-.05-.23v.12l-.06.11-.4.86zm3.26.63h.23c.1-.03.2-.07.29-.12h.1v-.56h-.4v-.18h.7v.8c-.19.12-.4.2-.63.23h-.3l-.5-.05a1.14 1.14 0 0 1-.4-.23l-.23-.35a.6.6 0 0 1-.06-.45l.06-.4.22-.35.4-.22a1.63 1.63 0 0 1 .81-.06c.16 0 .32.05.46.12l.16.1-.11.18h-.23l-.11-.12a1.18 1.18 0 0 0-.47-.05 1.14 1.14 0 0 0-.34 0l-.28.23-.23.22v.75l.23.28a.85.85 0 0 0 .63.17zm3.14-.06h1.03v.23h-1.37v-2.11h.34v1.88zm2.17.23h-.4v-2.11h.35v2.11zm1.2-2.11h.06l1.43 1.65v-1.65h.29v2.11h-.23v-.06l-1.49-1.6v1.66h-.29v-2.11h.23zm4.23 0v.23h-1.14v.68h.91v.23h-.97v.74h1.2v.23h-1.54v-2.11h1.54zM12.11 4.97l14.75 3.6v12.69l-14.75-3.6V4.97zm-.97-1.14v14.46l16.69 4.11V7.94L11.14 3.9z"/><path d="M20.11 29.03 3.43 24.9v-14.4l16.68 4.12v14.4z"/><path d="M11.43 4.8 26 8.34l-6.17 5.37-14.57-3.6 6.17-5.31zm-.29-.91-7.71 6.63 16.68 4.1 7.72-6.68L11.14 3.9zm9.89 24.34 6.8-5.94-6.8-1.72v7.6z"/></symbol><symbol id="icon-brand" viewBox="0 0 59 32"><path d="M15.31 25.37c.12.11.23.34.23.57 0 .12 0 .23-.11.34 0 .12-.12.23-.23.35-.29.17-.57.23-.97.23h-1.66v-3.43h1.66c.28 0 .57 0 .91.23l.23.28.06.35c0 .23 0 .4-.17.57a.85.85 0 0 1-.52.23c.23.05.4.17.57.34zm-1.94-.57h.69c.17 0 .28 0 .45-.11l.12-.12v-.4L14.5 24l-.45-.11h-.69v.91zm1.14 1.37c.12 0 .17-.11.17-.17v-.4l-.1-.17-.52-.11h-.69v.97h.74c.17 0 .29 0 .46-.12zm4.12.69-.86-1.37h-.34v1.37h-.86v-3.43h1.49c.34 0 .74.06 1.03.28a.9.9 0 0 1 .34.69c0 .29-.06.57-.23.74-.17.23-.46.35-.74.4l.97 1.37h-.86zm-1.2-1.83H18c.51 0 .69-.17.69-.57v-.17a.59.59 0 0 0-.12-.18.97.97 0 0 0-.57-.17h-.57v1.09zm5.48 1.14h-1.54l-.23.69h-.8l1.43-3.43h.92l1.42 3.43h-.85l-.29-.69zm-.17-.57-.57-1.43-.57 1.43h1.14zm5.55 1.26h-.75l-1.71-2.4v2.4h-.8v-3.43h.69l1.7 2.4v-2.4h.8v3.43zm4.45-.86c-.17.29-.4.51-.68.63-.35.17-.75.23-1.15.23h-1.37v-3.43h1.37c.4 0 .8 0 1.15.23.28.11.57.34.68.57a1.86 1.86 0 0 1 0 1.84v-.01zm-.91-.06a1.2 1.2 0 0 0 0-1.71 1.64 1.64 0 0 0-.97-.29h-.57v2.29h.57c.4 0 .74-.06.97-.29zM23.43 3.9s10.06 3.42 9.83 8.34v8.34s-10.06-3.43-9.83-8.34V3.89zm18.74 14.74a14.89 14.89 0 0 1 6.4-2.11v-2.63c-2.64.9-4.83 2.55-6.37 4.7l-.03.04z"/><path d="M41.03 19.43a13.44 13.44 0 0 1 7.54-6.12V5.83s-14.28 4.86-14 11.88v11.9l1.66-.64v-1.14A12.01 12.01 0 0 1 41 19.39l.03-.02z"/><path d="M39.71 23.83c.06-.86.23-1.66.46-2.46a10.87 10.87 0 0 0-3.03 7.18v.02l2.8-1.31a9.94 9.94 0 0 1-.23-3.43zm.58.06a9.39 9.39 0 0 0 .17 3.08c3.88-2.11 8.28-5.37 8.11-9.26v-.34c-2.8.29-5.43 1.37-7.43 3.09a10.8 10.8 0 0 0-.86 3.43z"/></symbol><symbol id="icon-foster-peters" viewBox="0 0 59 32"><path d="M13.71 12.29a2.36 2.36 0 0 0-2.4 2.28c0 1.14 1.09 2.17 2.46 2.17s2.46-.97 2.46-2.23c0-1.2-1.14-2.23-2.46-2.23zM32 11.6c0-1.71-.8-3.37-2.11-4.57a7.56 7.56 0 0 0-5.02-1.89h-.01c-1.95 0-3.72.69-5.09 1.89a6.2 6.2 0 0 0-2.06 4.57v9.37S32 19.54 32 11.6zM6.29 24.11c0 1.15.57 2.29 1.48 3.15a5.23 5.23 0 0 0 3.48 1.31c1.32 0 2.58-.46 3.5-1.31a4.28 4.28 0 0 0 1.48-3.14v-6.58s-9.94.97-9.94 6.57zm4.97 1.15c-.29 0-.52-.06-.75-.17l-.45-.57c-.12-.18-.12-.4-.06-.63 0-.23.17-.46.34-.63s.4-.29.69-.35c.23 0 .51 0 .74.12.23.05.4.23.57.4a1.13 1.13 0 0 1-.17 1.48l-.4.29-.51.06zm9.08-2.12v2.46h-.51v-2.46h.57zm.97 1.03v.4h-1.14v-.4h1.14zm.12-1.03v.4h-1.2v-.4h1.2zm2.28 1.15v.17l-.05.45c0 .18-.12.29-.23.4-.06.12-.17.18-.34.23l-.4.06-.4-.06-.35-.23c-.1-.1-.17-.24-.22-.39l-.06-.46v-.17l.05-.46.23-.4.35-.23.4-.06.4.06c.17.06.28.11.34.23l.23.4.06.46zm-.51.17v-.52l-.11-.23a.46.46 0 0 0-.4-.17h-.23l-.17.17-.12.23v.8l.12.29.17.17h.45l.18-.17.11-.29v-.28zm2.17.51v-.11l-.23-.23-.28-.06-.29-.11-.29-.17-.17-.23-.02-.15.02-.14v-.23l.23-.23.29-.17a1.27 1.27 0 0 1 .8.06l.34.29.11.4h-.57v-.23l-.11-.12h-.23a.58.58 0 0 0-.23 0l-.11.12-.06.11v.11l.12.12.17.06.17.1.4.12.23.17c.14.12.23.3.23.49v.03l-.06.28-.23.18-.29.17a1.37 1.37 0 0 1-1.04-.17h.01l-.23-.23-.05-.4h.51v.23l.12.1.17.07h.4c.09-.04.16-.13.17-.23zm1.94-1.83v2.46h-.57v-2.46h.57zm.75 0v.4h-2v-.4h2zm1.88 2.06v.4H28.7v-.46h1.25zm-1.14-2.06v2.46h-.46v-2.46h.52zm.97 1.03v.34h-1.14v-.34h1.14zm.17-1.03v.4H28.7v-.4h1.25zm.35 0h.85c.23 0 .35 0 .52.12.11 0 .23.11.28.23.12.11.12.23.12.4l-.06.34c0 .11-.11.17-.17.23l-.29.17-.17.06h-.8v-.4h.86l.17-.18v-.4l-.17-.1-.23-.07h-.4v2.06h-.51v-2.46zm1.31 2.46-.57-1.14h.57l.57 1.14h-.57zm2.69-.86h-.63v-.4h.57l.28-.05.12-.12v-.4l-.12-.17a.45.45 0 0 0-.22-.06h-.46v2.06h-.57v-2.46h1.03c.17 0 .34 0 .45.12.27.11.46.38.46.68l-.11.4c-.12.12-.17.23-.35.29-.13.07-.29.1-.45.11zm2.85.46v.4h-1.31v-.46h1.31zM36 23.14v2.46h-.46v-2.46H36zm.97 1.03v.34h-1.14v-.34h1.14zm.17-1.03v.4h-1.31v-.4h1.31zm1.43 0v2.46h-.51v-2.46h.51zm.74 0v.4h-2v-.4h2zm1.95 2.06v.4h-1.32v-.46h1.32zm-1.15-2.06v2.46h-.51v-2.46h.51zm.98 1.03v.34h-1.15v-.34h1.15zm.17-1.03v.4h-1.32v-.4h1.32zm.28 0h.92c.17 0 .34 0 .45.12.18 0 .23.11.35.23l.11.4c0 .11 0 .22-.11.34 0 .11-.06.17-.17.23l-.29.17-.17.06h-.74v-.4h.8l.11-.18v-.4l-.11-.1-.23-.07h-.4v2.06h-.57v-2.46zm1.37 2.46-.57-1.14h.57l.58 1.14h-.58zm2.12-.63v-.11l-.11-.12-.18-.11-.22-.06-.3-.11-.28-.17-.17-.23a.56.56 0 0 1-.05-.29l.05-.23c0-.11.12-.17.17-.23l.29-.17a1.3 1.3 0 0 1 .87.06h-.01l.28.29c.12.11.12.23.12.4h-.46l-.06-.23-.17-.12h-.23a.57.57 0 0 0-.17 0l-.17.12v.23l.11.11.35.17.34.12.29.17a.63.63 0 0 1 .17.52v.28l-.23.17-.29.17c-.1.02-.2.04-.3.04-.27 0-.52-.08-.73-.21l-.23-.23-.05-.4h.45l.06.23.11.11.12.06h.46c.09-.04.15-.12.17-.23z"/></symbol><symbol id="icon-teg-line" viewBox="0 0 59 32"><path d="M28.63 3.43H28a14.07 14.07 0 0 0-.76 0h.02c-2.12 0-4.17.57-6.06 1.43l-.28.11v12.75l.57-.23a21.4 21.4 0 0 1 6.25-1.09h.03v1.71h-.63c-2.88.15-5.56.94-7.92 2.22l.1-.04V4.06a16.78 16.78 0 0 1 8.56-2.35h.3c1.07.05 2.1.2 3.08.43l-.12-.03v1.6c-.68-.17-1.37-.23-2.05-.28h-.52zm2.86 1.66h1.14c3.17-.01 6.14-.84 8.72-2.28l-.1.05v16a16.84 16.84 0 0 1-11.87 1.92l.1.02v-16c.6.14 1.3.24 2.03.28h.03zm8.11.11-.57.17-1.6.52a19.13 19.13 0 0 1-5.88.56h.05-.46v12.98h.35l1.14.11c2.48 0 4.82-.6 6.89-1.64l-.09.04.23-.11V5.2zM20.4 25.83a.85.85 0 0 0-.57-.23h-.4a.86.86 0 0 0-.57.86v2.17c0 .17 0 .34.11.46 0 .11.11.23.17.28l.34.17h.63a.92.92 0 0 0 .57-.84V28.46h-.57v.34l-.23.23h-.11a.29.29 0 0 1-.29-.11l-.05-.35v-2.06l.05-.28a.29.29 0 0 1 .29-.17c.1 0 .19.08.23.17.11.06.11.17.11.28v.18h.57v-.23c0-.27-.11-.51-.28-.69zm3.37 0a1.02 1.02 0 0 0-.98-.17.31.31 0 0 0-.28.17l-.23.29-.05.4v2.1l.05.4c0 .12.12.24.23.3.06.1.17.17.29.17a.95.95 0 0 0 .7 0h-.02c.12 0 .23-.06.29-.18.18-.16.29-.4.29-.66v-2.14l-.06-.4c0-.1-.11-.22-.23-.28zm-.23 2.8c0 .11-.04.21-.11.29a.4.4 0 0 1-.57 0 .4.4 0 0 1-.12-.28V26.5c0-.11.05-.2.12-.28a.4.4 0 0 1 .57 0 .4.4 0 0 1 .11.28v2.12zm4.69.91V25.6h-.57l-.69 2.11-.74-2.11h-.57v3.94h.57v-2.4l.57 1.72h.29l.57-1.72v2.4h.57zm3.2-3.65-.34-.23h-1.26v3.88h.57V28h.29c.17 0 .34 0 .51-.11l.29-.29.17-.34a2.75 2.75 0 0 0 0-1.05v.02l-.23-.34zm-.29 1.14-.05.28-.17.12-.15.02a.6.6 0 0 1-.14-.02h-.23v-1.31h.29l.23.05.17.17v.75zm2.92-1.43h-.46l-.86 3.94h.57l.17-.85h.75l.17.85h.57l-.91-3.94zm-.52 2.57.29-1.43.29 1.43h-.58zm4.17-.17-.91-2.4h-.51v3.94h.57V27.2l.85 2.34h.57V25.6h-.57V28zm3.43-2.4-.45 1.54-.52-1.54h-.57l.8 2.29v1.65h.57v-1.71l.74-2.23h-.57zm-22.28 5.03h.28v.8h.17v-.8h.29v-.11h-.74v.1zm2.28-.12-.34.92h.17l.06-.23h.4l.05.23h.23l-.4-.92h-.17zm0 .58.06-.4.17.34h-.29zm2.29 0h.17v.11l-.23.06h-.02a.23.23 0 0 1-.15-.06l-.11-.23c0-.23.11-.34.28-.34l.06-.01c.1 0 .17.07.17.17h.17c0-.22-.17-.33-.4-.33l-.34.11a.45.45 0 0 0-.12.4c0 .11 0 .23.12.34.08.08.18.12.3.12h.04c.17 0 .29 0 .4-.17v-.35h-.4v.17zm2.28-.58h-.23v.92h.63v-.17h-.4v-.75zm1.89 0h-.17v.92h.17v-.92zm1.89.58-.35-.58h-.17v.92h.17v-.57l.35.57h.17v-.92h-.17v.58zm1.71-.06h.46v-.17h-.46v-.23h.51v-.11h-.68v.9h.68v-.16h-.51v-.23zm4.23-.17h-.4v-.35h-.17v.92h.17v-.4h.34v.4h.17v-.92h-.11v.35zm1.71.17h.4v-.17h-.4v-.23h.52v-.11h-.69v.9h.69v-.16h-.52v-.23zm2.29 0c.17 0 .23-.12.23-.29v-.02a.23.23 0 0 0-.06-.15.51.51 0 0 0-.24-.06h-.45v.92h.23v-.4h.12l.05.11.23.29h.23l-.11-.17-.23-.23zm-.17-.17h-.12v-.23h.29a.11.11 0 1 1 0 .23.57.57 0 0 1-.18 0zm1.94.17h.46v-.17h-.46v-.23h.51v-.11h-.68v.9h.68v-.16h-.51v-.23z"/></symbol><symbol id="icon-yasgo" viewBox="0 0 59 32"><path d="m21.71 4 4 3.83h-7.43v18.46h19.43v-7.03l4 3.77V4h-20zm15.83 14.8L26.17 7.94h11.37V18.8zM34 23.6H21.37V11.14h.86v11.6H34v.86zm-10.11 6.17-.46-.97h-.4l.68 1.26v.8h.35v-.75l.68-1.25h-.4l-.45.97zm1.71-.97h.11l.75 2h-.35l-.17-.46h-.8l-.17.46h-.34l.74-2h.23zm-.34 1.26h.57l-.29-.86-.28.86zm2.45-.35-.16-.2v-.54l.22-.17h.52a.46.46 0 0 1 .22.58l-.1.16-.18.12-.11.11.4.46a.78.78 0 0 0 .11-.4h.29v.28a.85.85 0 0 1-.18.35l.29.34h-.46l-.11-.11-.23.11a.9.9 0 0 1-.64 0h.01a.57.57 0 0 1-.23-.23.57.57 0 0 1 0-.57l.29-.29zm.18.23h-.06l-.11.12a.34.34 0 0 0 0 .34c0 .06 0 .11.1.11l.18.06c.13 0 .25-.04.34-.12l-.45-.56zm.05-.4.12-.05.17-.12v-.28l-.23-.06a.23.23 0 0 0-.17.11.28.28 0 0 0 0 .23l.11.17zm3.55.57h-.35v.29l-.17.11c-.04.02-.09.02-.14.02l-.15-.02h-.16a.4.4 0 0 1-.18-.11l-.05-.23v-.74l.05-.23.18-.11h.45l.12.1.05.24h.35c0-.12 0-.23-.12-.34 0-.12-.11-.18-.23-.23l-.4-.12-.34.06-.29.23-.17.28v.98c0 .1.12.22.17.28.14.17.34.28.58.29.17 0 .34 0 .45-.12.12 0 .17-.11.23-.23l.12-.34zm1.94-.28v-.51l-.23-.3-.23-.22h-.68l-.3.23-.16.28-.06.4v.58l.23.28c.13.17.34.28.57.29l.4-.06.23-.23.17-.28.06-.46zm-.29-.12v.46l-.11.23-.17.11h-.4a.46.46 0 0 1-.17-.11l-.12-.23v-.74l.12-.23.17-.11h.4l.17.1.11.24v.28z"/></symbol><symbol id="icon-compani" viewBox="0 0 59 32"><path d="M21.03 28.11h.06l.11.18-.34.22-.52.06-.45-.06c-.18-.05-.29-.11-.35-.23-.11-.1-.23-.22-.23-.34a1.06 1.06 0 0 1 0-.86c0-.11.12-.22.23-.28l.4-.23a1.45 1.45 0 0 1 .93 0h-.01l.34.17-.11.11h-.23a.9.9 0 0 0-.45-.11H20.06l-.29.23-.17.23-.06.34.06.34c.09.2.25.34.45.4h.52c.15 0 .29-.04.4-.11h.06zm3.66-.57c0 .12 0 .29-.12.4 0 .12-.11.23-.23.35-.1.09-.2.17-.33.22h-.98a1.14 1.14 0 0 1-.4-.23l-.23-.34a1.12 1.12 0 0 1 0-.85l.23-.29.4-.23c.28-.11.63-.11.97 0 .11 0 .23.11.34.23.21.18.35.44.35.74zm-.35 0-.05-.34a.7.7 0 0 0-.46-.4 1.13 1.13 0 0 0-.7 0h.01l-.23.11c-.11.12-.17.17-.17.29a.73.73 0 0 0 0 .69c.07.18.22.32.4.4h.69c.11 0 .23-.12.29-.18l.17-.22.05-.35zm2.8.35v.05l.12-.05v-.06l.8-1.26h.05l.06-.06h.29v2.06h-.29v-1.71l-.86 1.26v.05h-.22l-.86-1.31v1.71h-.29v-2.06h.34l.86 1.32v.06zm3.03-.12v.8h-.29v-2.06h1.1l.28.18.17.17v.33c0 .16-.07.3-.17.4l-.29.12-.4.06h-.4zm0-.23h.69c.11 0 .17-.05.17-.11l.11-.12.06-.17v-.17l-.12-.11c-.17-.12-.28-.12-.45-.12h-.4v.8zm4.29 1.03h-.29l-.11-.11-.17-.46h-1.15l-.17.46v.05h-.4l.92-2h.34l.97 2.06zm-1.6-.8h.91l-.4-.8v-.17l-.11.06v.11l-.4.8zm2.91-1.26h.06l1.37 1.6v-1.6h.29v2.06h-.18l-.05-.06-1.37-1.54v1.6h-.29v-2.06h.17zm4.06 1.2v.86h-.29v-.86l-.91-1.2h.34l.06.06.57.8.06.16v.01l.05-.06.06-.1.57-.8.06-.07h.29l-.86 1.2zm-12.8-4.62h.4a10.85 10.85 0 0 0 5.14-3.78 9.11 9.11 0 0 0 1.89-5.65l-2.35-2c.46 2.11.23 4.34-.68 6.34a12.1 12.1 0 0 1-4.36 5.12l-.04.02z"/><path d="M26.17 23.03h.06a11.52 11.52 0 0 0 4.68-5.26 9.56 9.56 0 0 0 .44-6.7l.02.07L28 8.3a12.02 12.02 0 0 1-1.83 14.74zM37.5 16a10.33 10.33 0 0 1-3.92 5.64l-.03.02c-.53.4-1.13.78-1.76 1.1l-.07.04c1.6-.4 3.1-1.14 4.35-2.11 1.2-.98 2.17-2.18 2.8-3.49l-1.37-1.14z"/><path d="M36.97 15.71 35.03 14c0 1.94-.63 3.77-1.77 5.37s-2.86 2.92-4.75 3.77h1.32a12.06 12.06 0 0 0 4.62-2.97 10 10 0 0 0 2.52-4.46zM26.46 7.1l-2.29-1.95a10.9 10.9 0 0 0-5.13 3.42l-.01.01a8.71 8.71 0 0 0-1.89 5.26c.03 2.21.9 4.22 2.3 5.72h-.01a11.25 11.25 0 0 0 6 3.36c2.11-2.22 3.37-4.9 3.54-7.77s-.68-5.65-2.51-8zm15.83 8.34a8.7 8.7 0 0 0-3.2-6.63 12.38 12.38 0 0 0-11.75-2.09l.09-.02 14.06 12c.47-.96.76-2.07.8-3.25v-.01z"/></symbol></defs></svg>