<svg xmlns="http://www.w3.org/2000/svg" width="104" height="56" fill="none"><path fill="#8E8F99" fill-rule="evenodd" d="M50.1 6H49a24 24 0 0 0-1.3 0C44 6 40.4 7 37.1 8.5l-.5.2V31l1-.4a38.4 38.4 0 0 1 11-1.9v3h-1.1a32.4 32.4 0 0 0-13.7 3.8V7.1a29.7 29.7 0 0 1 15-4.1h.5a29.2 29.2 0 0 1 5.2.7v2.8c-1.2-.3-2.4-.4-3.6-.5H50Zm5 2.9h2A31.5 31.5 0 0 0 72.2 5v28a29.8 29.8 0 0 1-20.6 3.4v-28a23 23 0 0 0 3.6.5Zm14.2.2-1 .3-2.8.9a34.3 34.3 0 0 1-10.2 1h-.8V34h.6l2 .2A26.9 26.9 0 0 0 69 31.4l.4-.2V9.1Z" clip-rule="evenodd"/><path fill="#8E8F99" d="M35.7 45.2a1.5 1.5 0 0 0-1-.4H34a1.5 1.5 0 0 0-1 1.5v3.8c0 .3 0 .6.2.8 0 .2.2.4.3.5l.6.3h1.1a1.6 1.6 0 0 0 1-1.5v-.4h-1v.6l-.2.2-.2.2h-.2a.5.5 0 0 1-.5-.2L34 50v-3.6l.1-.5a.5.5 0 0 1 .5-.3.5.5 0 0 1 .4.3c.2.1.2.3.2.5v.3h1v-.4a1.8 1.8 0 0 0-.5-1.2ZM41.6 45.2a1.8 1.8 0 0 0-1.7-.3c-.2 0-.4.1-.5.3l-.4.5-.1.7v3.7l.1.7c0 .2.2.4.4.5.1.2.3.3.5.3a1.7 1.7 0 0 0 1.2 0c.2 0 .4-.1.5-.3a1.6 1.6 0 0 0 .5-1.2v-3.7l-.1-.7c0-.2-.2-.4-.4-.5Zm-.4 4.9a.7.7 0 0 1-.2.5.7.7 0 0 1-1 0 .7.7 0 0 1-.2-.5v-3.7a.7.7 0 0 1 .2-.5.7.7 0 0 1 1 0 .7.7 0 0 1 .2.5v3.7ZM49.4 51.7v-6.9h-1l-1.2 3.7-1.3-3.7h-1v6.9h1v-4.2l1 3h.5l1-3v4.2h1ZM55 45.3l-.6-.4h-2.2v6.8h1V49h.5c.3 0 .6 0 .9-.2l.5-.5.3-.6a4.9 4.9 0 0 0 0-1.8l-.4-.6Zm-.5 2-.1.5-.3.2a1 1 0 0 1-.5 0h-.4v-2.3h.5l.4.1.3.3v1.3ZM59.6 44.8h-.8l-1.5 6.9h1l.3-1.5h1.3l.3 1.5h1l-1.6-6.9Zm-.9 4.5.5-2.5.5 2.5h-1ZM66 49l-1.6-4.2h-.9v6.9h1v-4.1l1.5 4.1h1v-6.9h-1V49ZM72 44.8l-.8 2.7-.9-2.7h-1l1.4 4v2.9h1v-3l1.3-3.9h-1ZM33 53.6h.5V55h.3v-1.4h.5v-.2H33v.2ZM37 53.4l-.6 1.6h.3l.1-.4h.7l.1.4h.4l-.7-1.6H37Zm0 1 .1-.7.3.6h-.5ZM41 54.4h.3v.2l-.4.1a.4.4 0 0 1-.3-.1l-.2-.4c0-.4.2-.6.5-.6a.3.3 0 0 1 .4.3h.3c0-.4-.3-.6-.7-.6l-.6.2a.8.8 0 0 0-.2.7c0 .2 0 .4.2.6a.8.8 0 0 0 .6.2c.3 0 .5 0 .7-.3v-.6h-.7v.3ZM45 53.4h-.4V55h1.1v-.3H45v-1.3ZM48.3 53.4H48V55h.3v-1.6ZM51.6 54.4l-.6-1h-.3V55h.3v-1l.6 1h.3v-1.6h-.3v1ZM54.6 54.3h.8V54h-.8v-.4h.9v-.2h-1.2V55h1.2v-.3h-.9v-.4ZM62 54h-.7v-.6H61V55h.3v-.7h.6v.7h.3v-1.6H62v.6ZM65 54.3h.7V54H65v-.4h.9v-.2h-1.2V55h1.2v-.3H65v-.4ZM69 54.3c.3 0 .4-.2.4-.5a.4.4 0 0 0-.1-.3.9.9 0 0 0-.5-.1h-.7V55h.4v-.7h.2l.1.2.4.5h.4l-.2-.3-.4-.4Zm-.3-.3h-.2v-.4h.5a.2.2 0 0 1 0 .4 1 1 0 0 1-.3 0ZM72.1 54.3h.8V54h-.8v-.4h.9v-.2h-1.2V55H73v-.3h-.9v-.4Z"/></svg>