<svg xmlns="http://www.w3.org/2000/svg" width="104" height="56" fill="none"><path fill="#8E8F99" fill-rule="evenodd" d="m38 7 7 6.7H32V46h34V33.7l7 6.6V7H38Zm27.7 25.9-19.9-19h19.9v19Zm-6.2 8.4H37.4V19.5h1.5v20.3h20.6v1.5ZM41.8 52.1l-.8-1.7h-.7l1.2 2.2V54h.6v-1.3l1.2-2.2h-.7l-.8 1.7Zm3-1.7h.2l1.3 3.5h-.6l-.3-.8H44l-.3.8h-.6l1.3-3.5h.4Zm-.6 2.2h1l-.5-1.5-.5 1.5Zm4.3-.6a9.5 9.5 0 0 1-.3-.4v-.9l.4-.3h.9a.8.8 0 0 1 .4 1l-.2.3-.3.2-.2.2.7.8a1.4 1.4 0 0 0 .2-.7h.5v.5a1.5 1.5 0 0 1-.3.6l.5.6H50l-.2-.2-.4.2a1.6 1.6 0 0 1-1.1 0 1 1 0 0 1-.4-.4 1 1 0 0 1 0-1l.2-.2.3-.3Zm.3.4h-.1l-.2.2a.6.6 0 0 0 0 .6c0 .1 0 .2.2.2l.3.1a1 1 0 0 0 .6-.2l-.8-1Zm.1-.7.2-.1.3-.2v-.5l-.4-.1a.4.4 0 0 0-.3.2.5.5 0 0 0 0 .4l.2.3Zm6.2 1h-.6v.5l-.3.2a1 1 0 0 1-.5 0h-.3a.7.7 0 0 1-.3-.2l-.1-.4v-1.3l.1-.4.3-.2h.8l.2.2.1.4h.6c0-.2 0-.4-.2-.6 0-.2-.2-.3-.4-.4l-.7-.2-.6.1-.5.4-.3.5V53c0 .2.2.4.3.5a1.3 1.3 0 0 0 1 .5c.3 0 .6 0 .8-.2.2 0 .3-.2.4-.4l.2-.6Zm3.4-.5V51.3l-.4-.5-.4-.4h-1.2l-.5.4-.3.5-.1.7v1l.4.5a1.3 1.3 0 0 0 1 .5l.7-.1.4-.4.3-.5.1-.8ZM58 52v.8l-.2.4-.3.2h-.7a.8.8 0 0 1-.3-.2l-.2-.4v-1.3l.2-.4.3-.2h.7l.3.2.2.4v.5Z" clip-rule="evenodd"/></svg>